solid OpenSCAD_Model
  facet normal -1 0 0
    outer loop
      vertex -2 11 0
      vertex -2 24 2
      vertex -2 24 0
    endloop
  endfacet
  facet normal -1 -0 0
    outer loop
      vertex -2 24 2
      vertex -2 11 0
      vertex -2 11 2
    endloop
  endfacet
  facet normal -0 0 1
    outer loop
      vertex 0 22 2
      vertex 43 11 2
      vertex 43 22 2
    endloop
  endfacet
  facet normal 0 0 1
    outer loop
      vertex 43 11 2
      vertex 0 22 2
      vertex 0 11 2
    endloop
  endfacet
  facet normal 1 -0 0
    outer loop
      vertex 45 11 5.5
      vertex 45 24 0
      vertex 45 24 5.5
    endloop
  endfacet
  facet normal 1 0 0
    outer loop
      vertex 45 24 0
      vertex 45 11 5.5
      vertex 45 11 0
    endloop
  endfacet
  facet normal 0 0 -1
    outer loop
      vertex 45 11 0
      vertex 26.5 24 0
      vertex 45 24 0
    endloop
  endfacet
  facet normal 0 0 -1
    outer loop
      vertex 26.5 24 0
      vertex 16.5 24 0
      vertex 26.5 74 0
    endloop
  endfacet
  facet normal 0 0 -1
    outer loop
      vertex 45 11 0
      vertex 16.5 24 0
      vertex 26.5 24 0
    endloop
  endfacet
  facet normal 0 0 -1
    outer loop
      vertex -2 11 0
      vertex 16.5 24 0
      vertex 45 11 0
    endloop
  endfacet
  facet normal -0 0 -1
    outer loop
      vertex 16.5 24 0
      vertex -2 11 0
      vertex -2 24 0
    endloop
  endfacet
  facet normal -0 0 -1
    outer loop
      vertex 26.5 74 0
      vertex 16.5 24 0
      vertex 16.5 74 0
    endloop
  endfacet
  facet normal 0 -1 0
    outer loop
      vertex -2 11 5.5
      vertex 0 11 4.5
      vertex 2 11 5.5
    endloop
  endfacet
  facet normal 0 -1 0
    outer loop
      vertex -2 11 2
      vertex 0 11 4.5
      vertex -2 11 5.5
    endloop
  endfacet
  facet normal 0 -1 0
    outer loop
      vertex -2 11 2
      vertex 0 11 2
      vertex 0 11 4.5
    endloop
  endfacet
  facet normal 0 -1 0
    outer loop
      vertex -2 11 0
      vertex 0 11 2
      vertex -2 11 2
    endloop
  endfacet
  facet normal 0 -1 -0
    outer loop
      vertex 0 11 2
      vertex -2 11 0
      vertex 43 11 2
    endloop
  endfacet
  facet normal 0 -1 -0
    outer loop
      vertex 2 11 5.5
      vertex 0 11 4.5
      vertex 2 11 4.5
    endloop
  endfacet
  facet normal 0 -1 0
    outer loop
      vertex 43 11 4.5
      vertex 41 11 5.5
      vertex 41 11 4.5
    endloop
  endfacet
  facet normal 0 -1 0
    outer loop
      vertex 41 11 5.5
      vertex 43 11 4.5
      vertex 45 11 5.5
    endloop
  endfacet
  facet normal 0 -1 0
    outer loop
      vertex 43 11 2
      vertex 45 11 5.5
      vertex 43 11 4.5
    endloop
  endfacet
  facet normal 0 -1 0
    outer loop
      vertex 43 11 2
      vertex 45 11 0
      vertex 45 11 5.5
    endloop
  endfacet
  facet normal 0 -1 0
    outer loop
      vertex 45 11 0
      vertex 43 11 2
      vertex -2 11 0
    endloop
  endfacet
  facet normal 0 1 0
    outer loop
      vertex 16.5 24 5.5
      vertex -2 24 2
      vertex -2 24 5.5
    endloop
  endfacet
  facet normal 0 1 -0
    outer loop
      vertex 16.5 24 0
      vertex -2 24 2
      vertex 16.5 24 5.5
    endloop
  endfacet
  facet normal 0 1 0
    outer loop
      vertex -2 24 0
      vertex -2 24 2
      vertex 16.5 24 0
    endloop
  endfacet
  facet normal 0 1 -0
    outer loop
      vertex 45 24 0
      vertex 26.5 24 5.5
      vertex 45 24 5.5
    endloop
  endfacet
  facet normal 0 1 0
    outer loop
      vertex 26.5 24 5.5
      vertex 45 24 0
      vertex 26.5 24 0
    endloop
  endfacet
  facet normal 0 0 1
    outer loop
      vertex 16.5 24 5.5
      vertex 26.5 24 5.5
      vertex 26.5 74 5.5
    endloop
  endfacet
  facet normal 0 0 1
    outer loop
      vertex 24 22 5.5
      vertex 19 22 5.5
      vertex 24 20 5.5
    endloop
  endfacet
  facet normal 0 0 1
    outer loop
      vertex 26.5 24 5.5
      vertex 16.5 24 5.5
      vertex 24 22 5.5
    endloop
  endfacet
  facet normal 0 0 1
    outer loop
      vertex 16.5 24 5.5
      vertex 26.5 74 5.5
      vertex 16.5 74 5.5
    endloop
  endfacet
  facet normal 0 0 1
    outer loop
      vertex 24 22 5.5
      vertex 16.5 24 5.5
      vertex 19 22 5.5
    endloop
  endfacet
  facet normal 0 0 1
    outer loop
      vertex 16.5 24 5.5
      vertex 0 22 5.5
      vertex 19 22 5.5
    endloop
  endfacet
  facet normal 0 0 1
    outer loop
      vertex 0 22 5.5
      vertex -2 24 5.5
      vertex 0 14 5.5
    endloop
  endfacet
  facet normal -0 0 1
    outer loop
      vertex -2 24 5.5
      vertex 0 22 5.5
      vertex 16.5 24 5.5
    endloop
  endfacet
  facet normal 0 0 1
    outer loop
      vertex 43 14 5.5
      vertex 45 24 5.5
      vertex 43 22 5.5
    endloop
  endfacet
  facet normal -0 0 1
    outer loop
      vertex 26.5 24 5.5
      vertex 43 22 5.5
      vertex 45 24 5.5
    endloop
  endfacet
  facet normal 0 0 1
    outer loop
      vertex 43 22 5.5
      vertex 26.5 24 5.5
      vertex 24 22 5.5
    endloop
  endfacet
  facet normal 0 0 1
    outer loop
      vertex 45 24 5.5
      vertex 43 14 5.5
      vertex 45 11 5.5
    endloop
  endfacet
  facet normal 0 0 1
    outer loop
      vertex 41 11 5.5
      vertex 43 14 5.5
      vertex 41 14 5.5
    endloop
  endfacet
  facet normal 0 0 1
    outer loop
      vertex 43 14 5.5
      vertex 41 11 5.5
      vertex 45 11 5.5
    endloop
  endfacet
  facet normal 0 0 1
    outer loop
      vertex 24 20 5.5
      vertex 19 22 5.5
      vertex 19 20 5.5
    endloop
  endfacet
  facet normal -0 0 1
    outer loop
      vertex 0 14 5.5
      vertex 2 11 5.5
      vertex 2 14 5.5
    endloop
  endfacet
  facet normal 0 0 1
    outer loop
      vertex 0 14 5.5
      vertex -2 11 5.5
      vertex 2 11 5.5
    endloop
  endfacet
  facet normal 0 0 1
    outer loop
      vertex -2 11 5.5
      vertex 0 14 5.5
      vertex -2 24 5.5
    endloop
  endfacet
  facet normal -1 0 0
    outer loop
      vertex 43 22 2
      vertex 43 14 4.5
      vertex 43 22 5.5
    endloop
  endfacet
  facet normal -1 0 0
    outer loop
      vertex 43 11 2
      vertex 43 14 4.5
      vertex 43 22 2
    endloop
  endfacet
  facet normal -1 -0 0
    outer loop
      vertex 43 14 4.5
      vertex 43 11 2
      vertex 43 11 4.5
    endloop
  endfacet
  facet normal -1 -0 0
    outer loop
      vertex 43 22 5.5
      vertex 43 14 4.5
      vertex 43 14 5.5
    endloop
  endfacet
  facet normal 1 0 0
    outer loop
      vertex 0 14 4.5
      vertex 0 22 5.5
      vertex 0 14 5.5
    endloop
  endfacet
  facet normal 1 0 0
    outer loop
      vertex 0 22 5.5
      vertex 0 14 4.5
      vertex 0 22 2
    endloop
  endfacet
  facet normal 1 0 0
    outer loop
      vertex 0 11 2
      vertex 0 14 4.5
      vertex 0 11 4.5
    endloop
  endfacet
  facet normal 1 0 0
    outer loop
      vertex 0 14 4.5
      vertex 0 11 2
      vertex 0 22 2
    endloop
  endfacet
  facet normal -1 7.33596e-08 0
    outer loop
      vertex -2 11 2
      vertex -2 24 5.5
      vertex -2 24 2
    endloop
  endfacet
  facet normal -1 7.33596e-08 0
    outer loop
      vertex -2 24 5.5
      vertex -2 11 2
      vertex -2 11 5.5
    endloop
  endfacet
  facet normal 0 -1 0
    outer loop
      vertex 0 22 5.5
      vertex 19 22 4.5
      vertex 19 22 5.5
    endloop
  endfacet
  facet normal 0 -1 -0
    outer loop
      vertex 19 22 4.5
      vertex 0 22 2
      vertex 24 22 4.5
    endloop
  endfacet
  facet normal 0 -1 0
    outer loop
      vertex 0 22 2
      vertex 19 22 4.5
      vertex 0 22 5.5
    endloop
  endfacet
  facet normal 0 -1 0
    outer loop
      vertex 24 22 4.5
      vertex 43 22 5.5
      vertex 24 22 5.5
    endloop
  endfacet
  facet normal 0 -1 0
    outer loop
      vertex 43 22 2
      vertex 24 22 4.5
      vertex 0 22 2
    endloop
  endfacet
  facet normal 0 -1 0
    outer loop
      vertex 24 22 4.5
      vertex 43 22 2
      vertex 43 22 5.5
    endloop
  endfacet
  facet normal 1 -0 0
    outer loop
      vertex 2 11 5.5
      vertex 2 14 4.5
      vertex 2 14 5.5
    endloop
  endfacet
  facet normal 1 0 0
    outer loop
      vertex 2 14 4.5
      vertex 2 11 5.5
      vertex 2 11 4.5
    endloop
  endfacet
  facet normal 0 0 -1
    outer loop
      vertex 0 11 4.5
      vertex 2 14 4.5
      vertex 2 11 4.5
    endloop
  endfacet
  facet normal -0 0 -1
    outer loop
      vertex 2 14 4.5
      vertex 0 11 4.5
      vertex 0 14 4.5
    endloop
  endfacet
  facet normal 0 1 -0
    outer loop
      vertex 2 14 4.5
      vertex 0 14 5.5
      vertex 2 14 5.5
    endloop
  endfacet
  facet normal 0 1 0
    outer loop
      vertex 0 14 5.5
      vertex 2 14 4.5
      vertex 0 14 4.5
    endloop
  endfacet
  facet normal -1 0 0
    outer loop
      vertex 41 11 4.5
      vertex 41 14 5.5
      vertex 41 14 4.5
    endloop
  endfacet
  facet normal -1 -0 0
    outer loop
      vertex 41 14 5.5
      vertex 41 11 4.5
      vertex 41 11 5.5
    endloop
  endfacet
  facet normal 0 1 -0
    outer loop
      vertex 43 14 4.5
      vertex 41 14 5.5
      vertex 43 14 5.5
    endloop
  endfacet
  facet normal 0 1 0
    outer loop
      vertex 41 14 5.5
      vertex 43 14 4.5
      vertex 41 14 4.5
    endloop
  endfacet
  facet normal 0 0 -1
    outer loop
      vertex 41 11 4.5
      vertex 43 14 4.5
      vertex 43 11 4.5
    endloop
  endfacet
  facet normal -0 0 -1
    outer loop
      vertex 43 14 4.5
      vertex 41 11 4.5
      vertex 41 14 4.5
    endloop
  endfacet
  facet normal -1 0 0
    outer loop
      vertex 19 20 4.5
      vertex 19 22 5.5
      vertex 19 22 4.5
    endloop
  endfacet
  facet normal -1 -0 0
    outer loop
      vertex 19 22 5.5
      vertex 19 20 4.5
      vertex 19 20 5.5
    endloop
  endfacet
  facet normal 1 -0 0
    outer loop
      vertex 24 20 5.5
      vertex 24 22 4.5
      vertex 24 22 5.5
    endloop
  endfacet
  facet normal 1 0 0
    outer loop
      vertex 24 22 4.5
      vertex 24 20 5.5
      vertex 24 20 4.5
    endloop
  endfacet
  facet normal 0 0 -1
    outer loop
      vertex 19 20 4.5
      vertex 24 22 4.5
      vertex 24 20 4.5
    endloop
  endfacet
  facet normal -0 0 -1
    outer loop
      vertex 24 22 4.5
      vertex 19 20 4.5
      vertex 19 22 4.5
    endloop
  endfacet
  facet normal 0 -1 0
    outer loop
      vertex 19 20 4.5
      vertex 24 20 5.5
      vertex 19 20 5.5
    endloop
  endfacet
  facet normal 0 -1 -0
    outer loop
      vertex 24 20 5.5
      vertex 19 20 4.5
      vertex 24 20 4.5
    endloop
  endfacet
  facet normal -1 0 0
    outer loop
      vertex 16.5 24 0
      vertex 16.5 74 5.5
      vertex 16.5 74 0
    endloop
  endfacet
  facet normal -1 -0 0
    outer loop
      vertex 16.5 74 5.5
      vertex 16.5 24 0
      vertex 16.5 24 5.5
    endloop
  endfacet
  facet normal 1 -0 0
    outer loop
      vertex 26.5 24 5.5
      vertex 26.5 74 0
      vertex 26.5 74 5.5
    endloop
  endfacet
  facet normal 1 0 0
    outer loop
      vertex 26.5 74 0
      vertex 26.5 24 5.5
      vertex 26.5 24 0
    endloop
  endfacet
  facet normal 0 1 -0
    outer loop
      vertex 26.5 74 0
      vertex 16.5 74 5.5
      vertex 26.5 74 5.5
    endloop
  endfacet
  facet normal 0 1 0
    outer loop
      vertex 16.5 74 5.5
      vertex 26.5 74 0
      vertex 16.5 74 0
    endloop
  endfacet
endsolid OpenSCAD_Model
