solid OpenSCAD_Model
  facet normal -0 0 1
    outer loop
      vertex 0 22 4.5
      vertex 43 11 4.5
      vertex 43 22 4.5
    endloop
  endfacet
  facet normal 0 0 1
    outer loop
      vertex 43 11 4.5
      vertex 0 22 4.5
      vertex 0 11 4.5
    endloop
  endfacet
  facet normal 0 0 -1
    outer loop
      vertex 0 11 2.5
      vertex 43 22 2.5
      vertex 43 11 2.5
    endloop
  endfacet
  facet normal -0 0 -1
    outer loop
      vertex 43 22 2.5
      vertex 0 11 2.5
      vertex 0 22 2.5
    endloop
  endfacet
  facet normal 0 -1 0
    outer loop
      vertex 0 11 2.5
      vertex 43 11 4.5
      vertex 0 11 4.5
    endloop
  endfacet
  facet normal 0 -1 -0
    outer loop
      vertex 43 11 4.5
      vertex 0 11 2.5
      vertex 43 11 2.5
    endloop
  endfacet
  facet normal 1 -0 0
    outer loop
      vertex 43 11 4.5
      vertex 43 22 2.5
      vertex 43 22 4.5
    endloop
  endfacet
  facet normal 1 0 0
    outer loop
      vertex 43 22 2.5
      vertex 43 11 4.5
      vertex 43 11 2.5
    endloop
  endfacet
  facet normal 0 1 -0
    outer loop
      vertex 43 22 2.5
      vertex 0 22 4.5
      vertex 43 22 4.5
    endloop
  endfacet
  facet normal 0 1 0
    outer loop
      vertex 0 22 4.5
      vertex 43 22 2.5
      vertex 0 22 2.5
    endloop
  endfacet
  facet normal -1 0 0
    outer loop
      vertex 0 11 2.5
      vertex 0 22 4.5
      vertex 0 22 2.5
    endloop
  endfacet
  facet normal -1 -0 0
    outer loop
      vertex 0 22 4.5
      vertex 0 11 2.5
      vertex 0 11 4.5
    endloop
  endfacet
endsolid OpenSCAD_Model
